<?xml version="1.0" encoding="UTF-8"?>
<!DOCTYPE svg PUBLIC "-//W3C//DTD SVG 1.1//EN" "http://www.w3.org/Graphics/SVG/1.1/DTD/svg11.dtd">
<svg xmlns="http://www.w3.org/2000/svg" version="1.1" width="500px" height="500px" style="shape-rendering:geometricPrecision; text-rendering:geometricPrecision; image-rendering:optimizeQuality; fill-rule:evenodd; clip-rule:evenodd" xmlns:xlink="http://www.w3.org/1999/xlink">
<g><path style="opacity:0.988" fill="#fafafa" d="M 382.5,290.5 C 381.668,267.67 381.168,244.67 381,221.5C 379.913,219.068 379.413,219.402 379.5,222.5C 376.167,222.5 372.833,222.5 369.5,222.5C 369.5,207.833 369.5,193.167 369.5,178.5C 366.666,150.165 352.333,129.999 326.5,118C 321.698,115.897 316.698,114.731 311.5,114.5C 271.669,113.335 231.669,113.169 191.5,114C 158.229,122.434 139.229,143.601 134.5,177.5C 133.833,192.672 133.167,208.005 132.5,223.5C 131.522,223.977 130.689,224.643 130,225.5C 129.383,224.551 129.549,223.718 130.5,223C 128.208,220.976 127.541,221.31 128.5,224C 126.879,226.166 126.045,228.666 126,231.5C 125.431,227.639 124.598,227.639 123.5,231.5C 122.682,234.107 122.182,236.774 122,239.5C 121.832,219.662 121.332,199.996 120.5,180.5C 125.473,135.029 150.473,108.529 195.5,101C 233.5,100.333 271.5,100.333 309.5,101C 345.882,106.114 369.382,126.28 380,161.5C 381.777,168.047 382.777,174.714 383,181.5C 383.808,217.856 383.641,254.189 382.5,290.5 Z"/></g>
<g><path style="opacity:1" fill="#0f151b" d="M 311.5,114.5 C 316.698,114.731 321.698,115.897 326.5,118C 352.333,129.999 366.666,150.165 369.5,178.5C 368.849,179.091 368.182,179.757 367.5,180.5C 366.548,178.955 366.215,177.288 366.5,175.5C 356.494,175.666 346.494,175.5 336.5,175C 335.641,170.5 334.641,166 333.5,161.5C 334.167,160.5 334.833,159.5 335.5,158.5C 334.229,158.874 333.062,158.208 332,156.5C 331.489,151.723 328.989,149.057 324.5,148.5C 318.781,141.633 311.447,137.3 302.5,135.5C 302.167,135.5 301.833,135.5 301.5,135.5C 300.778,135.918 300.278,136.584 300,137.5C 299.667,136.167 299.333,134.833 299,133.5C 297.413,134.727 296.079,134.394 295,132.5C 293.374,133.955 292.208,135.622 291.5,137.5C 291.5,136.167 291.5,134.833 291.5,133.5C 292.547,132.922 292.38,132.256 291,131.5C 290.667,131.833 290.333,132.167 290,132.5C 289.851,129.721 289.017,129.221 287.5,131C 280.919,131.187 274.419,131.687 268,132.5C 256.135,132.446 243.468,132.446 230,132.5C 227.667,131.833 225.333,131.167 223,130.5C 219.393,131.568 216.06,131.568 213,130.5C 211.363,131.833 210.529,133.166 210.5,134.5C 209.268,133.855 207.935,133.689 206.5,134C 207.96,133.189 208.293,132.355 207.5,131.5C 206.28,132.711 205.113,132.711 204,131.5C 203.487,132.527 202.987,133.527 202.5,134.5C 201.209,134.263 200.209,134.596 199.5,135.5C 196.426,136.302 193.426,137.302 190.5,138.5C 190.5,137.5 190.5,136.5 190.5,135.5C 194.693,135.047 198.693,133.881 202.5,132C 201.455,130.384 200.455,128.717 199.5,127C 200.333,126.167 201.167,125.333 202,124.5C 203.699,125.406 205.533,125.739 207.5,125.5C 207.141,123.234 207.808,121.401 209.5,120C 214.104,118.939 218.771,118.273 223.5,118C 220.833,117.667 218.167,117.333 215.5,117C 216.672,116.581 217.672,115.915 218.5,115C 249.498,114.5 280.498,114.333 311.5,114.5 Z"/></g>
<g><path style="opacity:1" fill="#13191f" d="M 311.5,114.5 C 280.498,114.333 249.498,114.5 218.5,115C 217.672,115.915 216.672,116.581 215.5,117C 218.167,117.333 220.833,117.667 223.5,118C 218.771,118.273 214.104,118.939 209.5,120C 207.808,121.401 207.141,123.234 207.5,125.5C 205.533,125.739 203.699,125.406 202,124.5C 201.167,125.333 200.333,126.167 199.5,127C 200.455,128.717 201.455,130.384 202.5,132C 198.693,133.881 194.693,135.047 190.5,135.5C 190.5,136.5 190.5,137.5 190.5,138.5C 174.808,148.854 168.142,163.521 170.5,182.5C 170.011,179.014 168.844,175.681 167,172.5C 164.213,173.222 163.38,174.722 164.5,177C 164.37,178.059 163.87,178.892 163,179.5C 162,178.5 161,177.5 160,176.5C 155.619,178.932 152.952,182.598 152,187.5C 151.512,184.526 150.012,182.193 147.5,180.5C 148.853,179.476 149.52,178.143 149.5,176.5C 147.5,176.5 145.5,176.5 143.5,176.5C 143.081,173.974 142.914,171.641 143,169.5C 140.779,170.934 139.279,172.934 138.5,175.5C 137.914,175.291 137.414,174.957 137,174.5C 136.148,175.571 135.315,176.571 134.5,177.5C 139.229,143.601 158.229,122.434 191.5,114C 231.669,113.169 271.669,113.335 311.5,114.5 Z"/></g>
<g><path style="opacity:1" fill="#f7fafa" d="M 199.5,135.5 C 200.777,136.694 201.444,138.36 201.5,140.5C 201.167,142.167 200.833,143.833 200.5,145.5C 183.907,156.798 178.241,172.131 183.5,191.5C 184.16,195.313 185.326,198.979 187,202.5C 192.336,210.176 199.169,216.009 207.5,220C 209.81,220.497 212.143,220.663 214.5,220.5C 215.038,222.117 215.371,223.784 215.5,225.5C 189.75,222.416 174.75,208.083 170.5,182.5C 168.142,163.521 174.808,148.854 190.5,138.5C 193.426,137.302 196.426,136.302 199.5,135.5 Z"/></g>
<g><path style="opacity:1" fill="#f7f9f8" d="M 302.5,135.5 C 311.447,137.3 318.781,141.633 324.5,148.5C 334.415,163.398 336.248,179.398 330,196.5C 321.792,214.499 307.959,223.832 288.5,224.5C 288.5,223.5 288.5,222.5 288.5,221.5C 308.16,218.673 319.327,207.339 322,187.5C 325.008,169.526 318.841,155.859 303.5,146.5C 302.511,142.893 302.177,139.226 302.5,135.5 Z"/></g>
<g><path style="opacity:1" fill="#c4cacb" d="M 199.5,135.5 C 200.209,134.596 201.209,134.263 202.5,134.5C 202.5,148.833 202.5,163.167 202.5,177.5C 202.703,179.39 202.037,180.89 200.5,182C 201.167,183.333 202.167,184.333 203.5,185C 202.397,186.68 202.73,188.18 204.5,189.5C 203.369,190.604 202.535,190.271 202,188.5C 201.671,192.04 199.838,193.206 196.5,192C 196.833,191.667 197.167,191.333 197.5,191C 196.271,189.471 194.771,188.304 193,187.5C 192.667,186.5 192.333,185.5 192,184.5C 189.256,184.214 186.423,184.547 183.5,185.5C 183.5,187.5 183.5,189.5 183.5,191.5C 178.241,172.131 183.907,156.798 200.5,145.5C 200.833,143.833 201.167,142.167 201.5,140.5C 201.444,138.36 200.777,136.694 199.5,135.5 Z"/></g>
<g><path style="opacity:1" fill="#b5bec0" d="M 202.5,177.5 C 204.059,182.633 206.226,187.633 209,192.5C 209.231,200.755 210.731,208.755 213.5,216.5C 214.234,217.708 214.567,219.041 214.5,220.5C 212.143,220.663 209.81,220.497 207.5,220C 199.169,216.009 192.336,210.176 187,202.5C 185.326,198.979 184.16,195.313 183.5,191.5C 183.5,189.5 183.5,187.5 183.5,185.5C 186.423,184.547 189.256,184.214 192,184.5C 192.333,185.5 192.667,186.5 193,187.5C 194.771,188.304 196.271,189.471 197.5,191C 197.167,191.333 196.833,191.667 196.5,192C 199.838,193.206 201.671,192.04 202,188.5C 202.535,190.271 203.369,190.604 204.5,189.5C 202.73,188.18 202.397,186.68 203.5,185C 202.167,184.333 201.167,183.333 200.5,182C 202.037,180.89 202.703,179.39 202.5,177.5 Z"/></g>
<g><path style="opacity:1" fill="#bbc3c3" d="M 301.5,135.5 C 301.833,135.5 302.167,135.5 302.5,135.5C 302.177,139.226 302.511,142.893 303.5,146.5C 318.841,155.859 325.008,169.526 322,187.5C 319.327,207.339 308.16,218.673 288.5,221.5C 291.348,213.088 292.848,204.421 293,195.5C 296.47,190.226 299.136,184.56 301,178.5C 301.5,164.171 301.667,149.837 301.5,135.5 Z"/></g>
<g><path style="opacity:1" fill="#060d13" d="M 291.5,133.5 C 290.167,133.5 288.833,133.5 287.5,133.5C 262.5,133.5 237.5,133.5 212.5,133.5C 212.171,148.01 212.504,162.343 213.5,176.5C 213.5,176.833 213.5,177.167 213.5,177.5C 214.9,183.226 217.9,187.893 222.5,191.5C 224.253,193.223 226.253,194.723 228.5,196C 243.514,199.281 258.514,199.281 273.5,196C 277.5,195.16 280.5,192.994 282.5,189.5C 286.377,186.758 289.044,183.091 290.5,178.5C 291.481,165.246 291.814,151.913 291.5,138.5C 291.5,138.167 291.5,137.833 291.5,137.5C 292.208,135.622 293.374,133.955 295,132.5C 296.079,134.394 297.413,134.727 299,133.5C 299.333,134.833 299.667,136.167 300,137.5C 300.278,136.584 300.778,135.918 301.5,135.5C 301.667,149.837 301.5,164.171 301,178.5C 299.136,184.56 296.47,190.226 293,195.5C 292.848,204.421 291.348,213.088 288.5,221.5C 288.5,222.5 288.5,223.5 288.5,224.5C 287.957,224.56 287.624,224.893 287.5,225.5C 292.669,227.316 297.669,228.649 302.5,229.5C 299.823,232.509 296.823,235.176 293.5,237.5C 289.481,237.819 285.481,238.153 281.5,238.5C 281.817,241.572 281.484,244.572 280.5,247.5C 276.521,248.816 276.521,250.149 280.5,251.5C 281.246,252.736 281.579,254.07 281.5,255.5C 279.396,255.799 277.396,255.466 275.5,254.5C 274.545,253.128 273.545,251.795 272.5,250.5C 273.291,247.885 273.957,245.218 274.5,242.5C 278.378,228.602 281.545,214.602 284,200.5C 282.512,202.16 280.679,203.16 278.5,203.5C 276.933,202.319 276.099,200.653 276,198.5C 274.887,199.711 273.72,199.711 272.5,198.5C 271.738,199.628 271.071,200.795 270.5,202C 268.385,202.557 266.385,203.391 264.5,204.5C 256.679,203.181 248.846,203.181 241,204.5C 239.864,203.217 238.531,202.217 237,201.5C 235.233,203.164 235.733,204.331 238.5,205C 237.833,205.333 237.167,205.667 236.5,206C 238.623,207.194 240.957,207.86 243.5,208C 242.862,209.707 242.862,211.54 243.5,213.5C 244.873,213.343 246.207,213.51 247.5,214C 245.899,214.273 244.399,214.773 243,215.5C 243.917,218.714 244.25,222.047 244,225.5C 242.708,224.209 241.542,224.209 240.5,225.5C 238.999,219.519 237.165,213.519 235,207.5C 229.046,206.518 223.713,204.184 219,200.5C 220.714,208.882 222.88,217.215 225.5,225.5C 224.883,225.611 224.383,225.944 224,226.5C 223.64,224.579 222.806,222.912 221.5,221.5C 221.833,220.833 222.167,220.167 222.5,219.5C 222.154,218.304 221.654,218.304 221,219.5C 219.86,215.167 219.027,211.001 218.5,207C 217.216,206.316 216.049,206.483 215,207.5C 215.347,210.604 214.847,213.604 213.5,216.5C 210.731,208.755 209.231,200.755 209,192.5C 206.226,187.633 204.059,182.633 202.5,177.5C 202.5,163.167 202.5,148.833 202.5,134.5C 202.987,133.527 203.487,132.527 204,131.5C 205.113,132.711 206.28,132.711 207.5,131.5C 208.293,132.355 207.96,133.189 206.5,134C 207.935,133.689 209.268,133.855 210.5,134.5C 210.529,133.166 211.363,131.833 213,130.5C 216.06,131.568 219.393,131.568 223,130.5C 225.333,131.167 227.667,131.833 230,132.5C 243.468,132.446 256.135,132.446 268,132.5C 274.419,131.687 280.919,131.187 287.5,131C 289.017,129.221 289.851,129.721 290,132.5C 290.333,132.167 290.667,131.833 291,131.5C 292.38,132.256 292.547,132.922 291.5,133.5 Z"/></g>
<g><path style="opacity:1" fill="#d4d9d8" d="M 282.5,189.5 C 280.5,192.994 277.5,195.16 273.5,196C 258.514,199.281 243.514,199.281 228.5,196C 226.253,194.723 224.253,193.223 222.5,191.5C 224.541,191.146 226.374,191.146 228,191.5C 230.348,189.146 231.014,186.479 230,183.5C 232.506,180.944 235.339,179.944 238.5,180.5C 239.5,180 240.5,179.5 241.5,179C 246.833,178.667 252.167,178.333 257.5,178C 256.692,177.692 256.025,177.192 255.5,176.5C 256.833,176.167 258.167,175.833 259.5,175.5C 264.05,176.82 268.716,177.654 273.5,178C 271.833,178.333 270.167,178.667 268.5,179C 270.766,179.932 272.766,181.266 274.5,183C 273.5,183.333 272.5,183.667 271.5,184C 273.432,185.352 274.766,187.185 275.5,189.5C 277.655,189.838 279.989,189.838 282.5,189.5 Z"/></g>
<g><path style="opacity:1" fill="#e1e3e2" d="M 290.5,178.5 C 289.044,183.091 286.377,186.758 282.5,189.5C 279.989,189.838 277.655,189.838 275.5,189.5C 274.766,187.185 273.432,185.352 271.5,184C 272.5,183.667 273.5,183.333 274.5,183C 272.766,181.266 270.766,179.932 268.5,179C 270.167,178.667 271.833,178.333 273.5,178C 268.716,177.654 264.05,176.82 259.5,175.5C 258.167,175.833 256.833,176.167 255.5,176.5C 256.025,177.192 256.692,177.692 257.5,178C 252.167,178.333 246.833,178.667 241.5,179C 240.5,179.5 239.5,180 238.5,180.5C 235.339,179.944 232.506,180.944 230,183.5C 231.014,186.479 230.348,189.146 228,191.5C 226.374,191.146 224.541,191.146 222.5,191.5C 217.9,187.893 214.9,183.226 213.5,177.5C 215.124,177.64 216.29,176.973 217,175.5C 217.333,176.833 217.667,178.167 218,179.5C 219.268,177.283 220.768,175.283 222.5,173.5C 222.833,173.833 223.167,174.167 223.5,174.5C 222.167,176.5 220.833,178.5 219.5,180.5C 219.833,180.833 220.167,181.167 220.5,181.5C 227.993,171.546 238.66,167.88 252.5,170.5C 260.211,170.452 267.878,170.952 275.5,172C 279.201,173.446 282.367,175.613 285,178.5C 286.81,175.982 288.643,175.982 290.5,178.5 Z"/></g>
<g><path style="opacity:1" fill="#eaebe9" d="M 291.5,138.5 C 291.814,151.913 291.481,165.246 290.5,178.5C 288.643,175.982 286.81,175.982 285,178.5C 282.367,175.613 279.201,173.446 275.5,172C 267.878,170.952 260.211,170.452 252.5,170.5C 238.66,167.88 227.993,171.546 220.5,181.5C 220.167,181.167 219.833,180.833 219.5,180.5C 220.833,178.5 222.167,176.5 223.5,174.5C 223.167,174.167 222.833,173.833 222.5,173.5C 220.768,175.283 219.268,177.283 218,179.5C 217.667,178.167 217.333,176.833 217,175.5C 216.29,176.973 215.124,177.64 213.5,177.5C 213.5,177.167 213.5,176.833 213.5,176.5C 213.5,173.5 213.5,170.5 213.5,167.5C 214.117,167.611 214.617,167.944 215,168.5C 223.62,162.458 233.12,158.458 243.5,156.5C 251.854,157.417 260.187,157.083 268.5,155.5C 274.842,156.674 281.176,157.841 287.5,159C 288,159.5 288.5,160 289,160.5C 290.132,153.154 290.966,145.821 291.5,138.5 Z"/></g>
<g><path style="opacity:1" fill="#7e8487" d="M 287.5,133.5 C 263.006,134.498 238.339,134.831 213.5,134.5C 213.5,145.5 213.5,156.5 213.5,167.5C 213.5,170.5 213.5,173.5 213.5,176.5C 212.504,162.343 212.171,148.01 212.5,133.5C 237.5,133.5 262.5,133.5 287.5,133.5 Z"/></g>
<g><path style="opacity:1" fill="#fbfcfc" d="M 287.5,133.5 C 288.833,133.5 290.167,133.5 291.5,133.5C 291.5,134.833 291.5,136.167 291.5,137.5C 291.5,137.833 291.5,138.167 291.5,138.5C 290.966,145.821 290.132,153.154 289,160.5C 288.5,160 288,159.5 287.5,159C 281.176,157.841 274.842,156.674 268.5,155.5C 260.187,157.083 251.854,157.417 243.5,156.5C 233.12,158.458 223.62,162.458 215,168.5C 214.617,167.944 214.117,167.611 213.5,167.5C 213.5,156.5 213.5,145.5 213.5,134.5C 238.339,134.831 263.006,134.498 287.5,133.5 Z"/></g>
<g><path style="opacity:1" fill="#f6f7f8" d="M 240.5,225.5 C 240.993,227.806 241.326,230.139 241.5,232.5C 237.956,234.268 233.956,235.102 229.5,235C 230.566,236.159 230.233,236.992 228.5,237.5C 227.899,234.032 226.899,230.699 225.5,227.5C 225.5,226.833 225.5,226.167 225.5,225.5C 222.88,217.215 220.714,208.882 219,200.5C 223.713,204.184 229.046,206.518 235,207.5C 237.165,213.519 238.999,219.519 240.5,225.5 Z"/></g>
<g><path style="opacity:1" fill="#050c14" d="M 278.5,203.5 C 275.619,205.68 272.286,206.68 268.5,206.5C 266.164,215.845 263.831,225.178 261.5,234.5C 260.417,239.101 259.084,243.767 257.5,248.5C 259.569,251.048 262.236,252.881 265.5,254C 267.378,255.543 268.878,257.376 270,259.5C 270.993,256.526 271.826,253.526 272.5,250.5C 273.545,251.795 274.545,253.128 275.5,254.5C 277.396,255.466 279.396,255.799 281.5,255.5C 281.81,256.738 282.31,256.738 283,255.5C 283.333,253.5 283.667,251.5 284,249.5C 285.049,251.618 286.549,253.284 288.5,254.5C 288.393,258.098 287.726,261.598 286.5,265C 286.836,266.03 287.503,266.53 288.5,266.5C 288.577,267.75 289.244,268.583 290.5,269C 289.524,271.147 289.691,273.314 291,275.5C 292.517,272.449 294.684,271.783 297.5,273.5C 297.756,275.792 297.423,277.959 296.5,280C 298.286,280.196 299.619,281.029 300.5,282.5C 299.288,282.07 297.955,282.07 296.5,282.5C 292.861,280.345 289.194,278.178 285.5,276C 281.582,274.844 277.582,274.344 273.5,274.5C 273.662,276.527 273.495,278.527 273,280.5C 271.807,282.886 270.64,285.22 269.5,287.5C 259.053,297.583 248.386,297.916 237.5,288.5C 234.153,284.805 232.153,280.472 231.5,275.5C 223.912,274.45 216.912,275.95 210.5,280C 208.21,281.777 206.543,283.944 205.5,286.5C 203.126,289.686 202.126,293.353 202.5,297.5C 201.511,302.975 201.178,308.642 201.5,314.5C 201.631,315.239 201.464,315.906 201,316.5C 200.5,315.5 200,314.5 199.5,313.5C 200.757,310.177 200.757,306.844 199.5,303.5C 196.608,307.127 194.608,311.127 193.5,315.5C 193.334,307.493 193.5,299.493 194,291.5C 195.615,282.42 200.115,275.253 207.5,270C 211.009,268.241 214.675,267.074 218.5,266.5C 218.91,258.775 216.577,252.108 211.5,246.5C 210.508,246.672 209.842,246.338 209.5,245.5C 211.226,245.185 212.893,245.019 214.5,245C 216.545,247.341 218.545,249.674 220.5,252C 219.465,253.507 219.632,255.007 221,256.5C 221.667,253.833 222.333,253.833 223,256.5C 223.5,255.333 224.333,254.5 225.5,254C 222.833,253.333 222.833,252.667 225.5,252C 222.046,251.707 221.712,250.374 224.5,248C 225.938,247.781 227.271,247.281 228.5,246.5C 227.167,245.167 227.167,243.833 228.5,242.5C 227.109,242.891 226.109,242.058 225.5,240C 225.377,238.211 225.377,236.378 225.5,234.5C 223.17,232.162 223.17,229.829 225.5,227.5C 226.899,230.699 227.899,234.032 228.5,237.5C 230.662,244.81 232.829,252.143 235,259.5C 238.689,255.618 242.523,252.118 246.5,249C 245.198,243.269 243.531,237.769 241.5,232.5C 241.326,230.139 240.993,227.806 240.5,225.5C 241.542,224.209 242.708,224.209 244,225.5C 244.25,222.047 243.917,218.714 243,215.5C 244.399,214.773 245.899,214.273 247.5,214C 246.207,213.51 244.873,213.343 243.5,213.5C 242.862,211.54 242.862,209.707 243.5,208C 240.957,207.86 238.623,207.194 236.5,206C 237.167,205.667 237.833,205.333 238.5,205C 235.733,204.331 235.233,203.164 237,201.5C 238.531,202.217 239.864,203.217 241,204.5C 248.846,203.181 256.679,203.181 264.5,204.5C 266.385,203.391 268.385,202.557 270.5,202C 271.071,200.795 271.738,199.628 272.5,198.5C 273.72,199.711 274.887,199.711 276,198.5C 276.099,200.653 276.933,202.319 278.5,203.5 Z"/></g>
<g><path style="opacity:1" fill="#f4f5f6" d="M 274.5,242.5 C 273.213,241.472 272.046,241.805 271,243.5C 269.469,242.783 268.136,241.783 267,240.5C 266.127,240.735 265.293,241.069 264.5,241.5C 264.12,237.449 263.12,235.115 261.5,234.5C 263.831,225.178 266.164,215.845 268.5,206.5C 272.286,206.68 275.619,205.68 278.5,203.5C 280.679,203.16 282.512,202.16 284,200.5C 281.545,214.602 278.378,228.602 274.5,242.5 Z"/></g>
<g><path style="opacity:1" fill="#070f18" d="M 170.5,182.5 C 174.75,208.083 189.75,222.416 215.5,225.5C 215.371,223.784 215.038,222.117 214.5,220.5C 214.567,219.041 214.234,217.708 213.5,216.5C 214.847,213.604 215.347,210.604 215,207.5C 216.049,206.483 217.216,206.316 218.5,207C 219.027,211.001 219.86,215.167 221,219.5C 221.654,218.304 222.154,218.304 222.5,219.5C 222.167,220.167 221.833,220.833 221.5,221.5C 222.806,222.912 223.64,224.579 224,226.5C 224.383,225.944 224.883,225.611 225.5,225.5C 225.5,226.167 225.5,226.833 225.5,227.5C 223.17,229.829 223.17,232.162 225.5,234.5C 225.377,236.378 225.377,238.211 225.5,240C 226.109,242.058 227.109,242.891 228.5,242.5C 227.167,243.833 227.167,245.167 228.5,246.5C 227.271,247.281 225.938,247.781 224.5,248C 221.712,250.374 222.046,251.707 225.5,252C 222.833,252.667 222.833,253.333 225.5,254C 224.333,254.5 223.5,255.333 223,256.5C 222.333,253.833 221.667,253.833 221,256.5C 219.632,255.007 219.465,253.507 220.5,252C 218.545,249.674 216.545,247.341 214.5,245C 212.893,245.019 211.226,245.185 209.5,245.5C 189.469,240.933 175.302,247.933 167,266.5C 162.951,284.633 166.618,300.967 178,315.5C 181.136,319.478 184.969,322.478 189.5,324.5C 190.848,325.601 192.348,326.601 194,327.5C 194.497,323.476 194.331,319.476 193.5,315.5C 194.608,311.127 196.608,307.127 199.5,303.5C 200.757,306.844 200.757,310.177 199.5,313.5C 200,314.5 200.5,315.5 201,316.5C 201.464,315.906 201.631,315.239 201.5,314.5C 202.612,316.599 203.279,318.933 203.5,321.5C 204.167,322.833 204.833,324.167 205.5,325.5C 207.153,327.961 209.153,330.128 211.5,332C 236.831,332.5 262.164,332.667 287.5,332.5C 288.263,333.268 289.263,333.768 290.5,334C 288.377,335.194 286.043,335.86 283.5,336C 283.833,336.333 284.167,336.667 284.5,337C 277.457,337.698 270.624,336.864 264,334.5C 261.252,335.686 258.419,336.686 255.5,337.5C 258.911,338.888 262.244,339.554 265.5,339.5C 265.857,343.407 265.857,347.407 265.5,351.5C 241.824,350.95 217.824,350.95 193.5,351.5C 160.761,344.761 141.095,325.095 134.5,292.5C 134.5,254.167 134.5,215.833 134.5,177.5C 135.315,176.571 136.148,175.571 137,174.5C 137.414,174.957 137.914,175.291 138.5,175.5C 139.279,172.934 140.779,170.934 143,169.5C 142.914,171.641 143.081,173.974 143.5,176.5C 145.5,176.5 147.5,176.5 149.5,176.5C 149.52,178.143 148.853,179.476 147.5,180.5C 150.012,182.193 151.512,184.526 152,187.5C 152.952,182.598 155.619,178.932 160,176.5C 161,177.5 162,178.5 163,179.5C 163.87,178.892 164.37,178.059 164.5,177C 163.38,174.722 164.213,173.222 167,172.5C 168.844,175.681 170.011,179.014 170.5,182.5 Z"/></g>
<g><path style="opacity:1" fill="#060f17" d="M 324.5,148.5 C 328.989,149.057 331.489,151.723 332,156.5C 333.062,158.208 334.229,158.874 335.5,158.5C 334.833,159.5 334.167,160.5 333.5,161.5C 334.641,166 335.641,170.5 336.5,175C 346.494,175.5 356.494,175.666 366.5,175.5C 366.215,177.288 366.548,178.955 367.5,180.5C 368.182,179.757 368.849,179.091 369.5,178.5C 369.5,193.167 369.5,207.833 369.5,222.5C 369.5,245.167 369.5,267.833 369.5,290.5C 367.063,306.814 360.397,321.147 349.5,333.5C 337.687,343.4 324.021,349.567 308.5,352C 270.168,352.5 231.835,352.667 193.5,352.5C 193.5,352.167 193.5,351.833 193.5,351.5C 217.824,350.95 241.824,350.95 265.5,351.5C 265.857,347.407 265.857,343.407 265.5,339.5C 262.244,339.554 258.911,338.888 255.5,337.5C 258.419,336.686 261.252,335.686 264,334.5C 270.624,336.864 277.457,337.698 284.5,337C 284.167,336.667 283.833,336.333 283.5,336C 286.043,335.86 288.377,335.194 290.5,334C 289.263,333.768 288.263,333.268 287.5,332.5C 292.913,332.42 296.246,329.753 297.5,324.5C 299.008,322.819 300.008,320.819 300.5,318.5C 301.752,310.359 301.752,302.359 300.5,294.5C 300.59,291.848 299.924,289.515 298.5,287.5C 297.833,285.833 297.167,284.167 296.5,282.5C 297.955,282.07 299.288,282.07 300.5,282.5C 299.619,281.029 298.286,280.196 296.5,280C 297.423,277.959 297.756,275.792 297.5,273.5C 294.684,271.783 292.517,272.449 291,275.5C 289.691,273.314 289.524,271.147 290.5,269C 289.244,268.583 288.577,267.75 288.5,266.5C 300.117,271.356 307.284,280.022 310,292.5C 310.5,302.494 310.666,312.494 310.5,322.5C 309.948,324.331 309.948,325.997 310.5,327.5C 331.658,314.849 340.825,296.182 338,271.5C 333.033,252.51 320.867,243.677 301.5,245C 297.965,245.663 294.965,247.163 292.5,249.5C 291.197,251.142 289.864,252.809 288.5,254.5C 286.549,253.284 285.049,251.618 284,249.5C 283.667,251.5 283.333,253.5 283,255.5C 282.31,256.738 281.81,256.738 281.5,255.5C 281.579,254.07 281.246,252.736 280.5,251.5C 276.521,250.149 276.521,248.816 280.5,247.5C 281.484,244.572 281.817,241.572 281.5,238.5C 285.481,238.153 289.481,237.819 293.5,237.5C 296.823,235.176 299.823,232.509 302.5,229.5C 297.669,228.649 292.669,227.316 287.5,225.5C 287.624,224.893 287.957,224.56 288.5,224.5C 307.959,223.832 321.792,214.499 330,196.5C 336.248,179.398 334.415,163.398 324.5,148.5 Z"/></g>
<g><path style="opacity:1" fill="#f7f9f9" d="M 209.5,245.5 C 209.842,246.338 210.508,246.672 211.5,246.5C 211.539,247.583 211.873,248.583 212.5,249.5C 189.132,251.532 177.132,264.198 176.5,287.5C 175.973,302.276 181.306,314.442 192.5,324C 191.552,324.483 190.552,324.649 189.5,324.5C 184.969,322.478 181.136,319.478 178,315.5C 166.618,300.967 162.951,284.633 167,266.5C 175.302,247.933 189.469,240.933 209.5,245.5 Z"/></g>
<g><path style="opacity:1" fill="#dfe3e2" d="M 241.5,232.5 C 243.531,237.769 245.198,243.269 246.5,249C 242.523,252.118 238.689,255.618 235,259.5C 232.829,252.143 230.662,244.81 228.5,237.5C 230.233,236.992 230.566,236.159 229.5,235C 233.956,235.102 237.956,234.268 241.5,232.5 Z"/></g>
<g><path style="opacity:1" fill="#f6f8f8" d="M 310.5,322.5 C 316.784,319.714 321.284,315.047 324,308.5C 328.956,294.35 328.623,280.35 323,266.5C 315.668,255.751 305.501,250.084 292.5,249.5C 294.965,247.163 297.965,245.663 301.5,245C 320.867,243.677 333.033,252.51 338,271.5C 340.825,296.182 331.658,314.849 310.5,327.5C 309.948,325.997 309.948,324.331 310.5,322.5 Z"/></g>
<g><path style="opacity:1" fill="#d5d9da" d="M 261.5,234.5 C 263.12,235.115 264.12,237.449 264.5,241.5C 265.293,241.069 266.127,240.735 267,240.5C 268.136,241.783 269.469,242.783 271,243.5C 272.046,241.805 273.213,241.472 274.5,242.5C 273.957,245.218 273.291,247.885 272.5,250.5C 271.826,253.526 270.993,256.526 270,259.5C 268.878,257.376 267.378,255.543 265.5,254C 262.236,252.881 259.569,251.048 257.5,248.5C 259.084,243.767 260.417,239.101 261.5,234.5 Z"/></g>
<g><path style="opacity:1" fill="#c3cbcb" d="M 292.5,249.5 C 305.501,250.084 315.668,255.751 323,266.5C 328.623,280.35 328.956,294.35 324,308.5C 321.284,315.047 316.784,319.714 310.5,322.5C 310.666,312.494 310.5,302.494 310,292.5C 307.284,280.022 300.117,271.356 288.5,266.5C 287.503,266.53 286.836,266.03 286.5,265C 287.726,261.598 288.393,258.098 288.5,254.5C 289.864,252.809 291.197,251.142 292.5,249.5 Z"/></g>
<g><path style="opacity:1" fill="#e6eaeb" d="M 382.5,290.5 C 382.419,295.477 381.419,300.143 379.5,304.5C 378.418,302.673 378.418,300.673 379.5,298.5C 378.472,296.292 377.139,294.292 375.5,292.5C 376.469,290.427 377.135,288.261 377.5,286C 377.036,281.541 376.87,277.041 377,272.5C 376.667,272.833 376.333,273.167 376,273.5C 374.082,269.968 372.582,269.968 371.5,273.5C 372.393,276.084 372.726,278.751 372.5,281.5C 373.5,281.5 374.5,281.5 375.5,281.5C 374.456,284.165 373.289,286.832 372,289.5C 371.667,288.833 371.333,288.167 371,287.5C 370.667,289.167 370.333,290.833 370,292.5C 369.536,291.906 369.369,291.239 369.5,290.5C 369.5,267.833 369.5,245.167 369.5,222.5C 372.833,222.5 376.167,222.5 379.5,222.5C 379.413,219.402 379.913,219.068 381,221.5C 381.168,244.67 381.668,267.67 382.5,290.5 Z"/></g>
<g><path style="opacity:1" fill="#c0c6c6" d="M 211.5,246.5 C 216.577,252.108 218.91,258.775 218.5,266.5C 214.675,267.074 211.009,268.241 207.5,270C 200.115,275.253 195.615,282.42 194,291.5C 193.5,299.493 193.334,307.493 193.5,315.5C 194.331,319.476 194.497,323.476 194,327.5C 192.348,326.601 190.848,325.601 189.5,324.5C 190.552,324.649 191.552,324.483 192.5,324C 181.306,314.442 175.973,302.276 176.5,287.5C 177.132,264.198 189.132,251.532 212.5,249.5C 211.873,248.583 211.539,247.583 211.5,246.5 Z"/></g>
<g><path style="opacity:1" fill="#f9fafa" d="M 264.5,275.5 C 263.691,274.531 262.691,273.698 261.5,273C 254.811,272.622 248.144,272.622 241.5,273C 240.663,271.989 240.33,270.822 240.5,269.5C 243.657,261.091 249.657,258.257 258.5,261C 263.565,264.565 265.565,269.398 264.5,275.5 Z"/></g>
<g><path style="opacity:1" fill="#e1e5e4" d="M 134.5,177.5 C 134.5,215.833 134.5,254.167 134.5,292.5C 134.688,294.103 134.188,295.437 133,296.5C 132.026,294.122 131.359,294.456 131,297.5C 130.667,296.833 130.333,296.167 130,295.5C 130.603,300.216 128.769,303.216 124.5,304.5C 122.418,299.492 121.251,294.158 121,288.5C 120.5,252.502 120.333,216.502 120.5,180.5C 121.332,199.996 121.832,219.662 122,239.5C 122.182,236.774 122.682,234.107 123.5,231.5C 124.598,227.639 125.431,227.639 126,231.5C 126.045,228.666 126.879,226.166 128.5,224C 127.541,221.31 128.208,220.976 130.5,223C 129.549,223.718 129.383,224.551 130,225.5C 130.689,224.643 131.522,223.977 132.5,223.5C 133.167,208.005 133.833,192.672 134.5,177.5 Z"/></g>
<g><path style="opacity:1" fill="#f8f9f9" d="M 237.5,288.5 C 237.631,289.239 237.464,289.906 237,290.5C 226.582,289.513 216.082,289.18 205.5,289.5C 205.5,288.5 205.5,287.5 205.5,286.5C 206.543,283.944 208.21,281.777 210.5,280C 216.912,275.95 223.912,274.45 231.5,275.5C 232.153,280.472 234.153,284.805 237.5,288.5 Z"/></g>
<g><path style="opacity:1" fill="#f7f9f9" d="M 296.5,282.5 C 297.167,284.167 297.833,285.833 298.5,287.5C 288.833,290.167 279.167,290.167 269.5,287.5C 270.64,285.22 271.807,282.886 273,280.5C 273.495,278.527 273.662,276.527 273.5,274.5C 277.582,274.344 281.582,274.844 285.5,276C 289.194,278.178 292.861,280.345 296.5,282.5 Z"/></g>
<g><path style="opacity:1" fill="#d8dedd" d="M 240.5,269.5 C 240.33,270.822 240.663,271.989 241.5,273C 248.144,272.622 254.811,272.622 261.5,273C 262.691,273.698 263.691,274.531 264.5,275.5C 263.765,280.737 260.765,283.904 255.5,285C 244.038,285.71 239.038,280.543 240.5,269.5 Z"/></g>
<g><path style="opacity:1" fill="#dbe0e0" d="M 205.5,286.5 C 205.5,287.5 205.5,288.5 205.5,289.5C 216.082,289.18 226.582,289.513 237,290.5C 237.464,289.906 237.631,289.239 237.5,288.5C 248.386,297.916 259.053,297.583 269.5,287.5C 279.167,290.167 288.833,290.167 298.5,287.5C 299.924,289.515 300.59,291.848 300.5,294.5C 300.666,299.179 300.499,303.845 300,308.5C 297.971,307.965 296.138,306.799 294.5,305C 293.101,304.405 291.768,304.572 290.5,305.5C 289.808,304.975 289.308,304.308 289,303.5C 285.661,304.089 282.494,303.256 279.5,301C 274.476,300.335 269.476,300.502 264.5,301.5C 262.865,301.122 261.365,300.456 260,299.5C 250.395,303.749 241.062,303.416 232,298.5C 230.538,299.035 228.872,299.035 227,298.5C 223.709,300.171 219.209,302.171 213.5,304.5C 212.914,304.291 212.414,303.957 212,303.5C 208.427,306.591 205.427,309.258 203,311.5C 202.501,306.845 202.334,302.179 202.5,297.5C 202.126,293.353 203.126,289.686 205.5,286.5 Z"/></g>
<g><path style="opacity:1" fill="#cbd1d1" d="M 300.5,294.5 C 301.752,302.359 301.752,310.359 300.5,318.5C 299.596,317.791 299.263,316.791 299.5,315.5C 292.311,313.758 285.978,311.424 280.5,308.5C 268.546,309.646 256.546,309.812 244.5,309C 243.737,308.056 242.737,307.556 241.5,307.5C 236.513,308.232 231.513,308.899 226.5,309.5C 224.956,309.21 223.623,308.544 222.5,307.5C 221.002,310.253 219.002,312.586 216.5,314.5C 212.167,314.67 209.5,316.837 208.5,321C 207.584,321.374 206.75,321.874 206,322.5C 205.329,321.748 204.496,321.414 203.5,321.5C 203.279,318.933 202.612,316.599 201.5,314.5C 201.178,308.642 201.511,302.975 202.5,297.5C 202.334,302.179 202.501,306.845 203,311.5C 205.427,309.258 208.427,306.591 212,303.5C 212.414,303.957 212.914,304.291 213.5,304.5C 219.209,302.171 223.709,300.171 227,298.5C 228.872,299.035 230.538,299.035 232,298.5C 241.062,303.416 250.395,303.749 260,299.5C 261.365,300.456 262.865,301.122 264.5,301.5C 269.476,300.502 274.476,300.335 279.5,301C 282.494,303.256 285.661,304.089 289,303.5C 289.308,304.308 289.808,304.975 290.5,305.5C 291.768,304.572 293.101,304.405 294.5,305C 296.138,306.799 297.971,307.965 300,308.5C 300.499,303.845 300.666,299.179 300.5,294.5 Z"/></g>
<g><path style="opacity:1" fill="#bfc6c6" d="M 300.5,318.5 C 300.008,320.819 299.008,322.819 297.5,324.5C 296.178,324.33 295.011,324.663 294,325.5C 293.535,324.069 292.701,322.903 291.5,322C 274.622,320.38 257.622,318.88 240.5,317.5C 236.897,318.015 233.397,318.015 230,317.5C 227.976,317.8 227.476,318.633 228.5,320C 226.975,321.009 225.308,321.509 223.5,321.5C 223.5,322.5 223.5,323.5 223.5,324.5C 221.876,324.36 220.71,325.027 220,326.5C 218.644,325.62 217.144,325.286 215.5,325.5C 215.649,324.448 215.483,323.448 215,322.5C 212.112,324.184 208.946,325.184 205.5,325.5C 204.833,324.167 204.167,322.833 203.5,321.5C 204.496,321.414 205.329,321.748 206,322.5C 206.75,321.874 207.584,321.374 208.5,321C 209.5,316.837 212.167,314.67 216.5,314.5C 219.002,312.586 221.002,310.253 222.5,307.5C 223.623,308.544 224.956,309.21 226.5,309.5C 231.513,308.899 236.513,308.232 241.5,307.5C 242.737,307.556 243.737,308.056 244.5,309C 256.546,309.812 268.546,309.646 280.5,308.5C 285.978,311.424 292.311,313.758 299.5,315.5C 299.263,316.791 299.596,317.791 300.5,318.5 Z"/></g>
<g><path style="opacity:1" fill="#b2bbbb" d="M 297.5,324.5 C 296.246,329.753 292.913,332.42 287.5,332.5C 262.164,332.667 236.831,332.5 211.5,332C 209.153,330.128 207.153,327.961 205.5,325.5C 208.946,325.184 212.112,324.184 215,322.5C 215.483,323.448 215.649,324.448 215.5,325.5C 217.144,325.286 218.644,325.62 220,326.5C 220.71,325.027 221.876,324.36 223.5,324.5C 223.5,323.5 223.5,322.5 223.5,321.5C 225.308,321.509 226.975,321.009 228.5,320C 227.476,318.633 227.976,317.8 230,317.5C 233.397,318.015 236.897,318.015 240.5,317.5C 257.622,318.88 274.622,320.38 291.5,322C 292.701,322.903 293.535,324.069 294,325.5C 295.011,324.663 296.178,324.33 297.5,324.5 Z"/></g>
<g><path style="opacity:1" fill="#d6dddd" d="M 379.5,304.5 C 371.805,331.623 354.805,349.957 328.5,359.5C 327.262,359.19 327.262,358.69 328.5,358C 334.353,356.826 339.187,353.993 343,349.5C 345.972,346.305 348.306,342.305 350,337.5C 350.579,336.072 350.412,334.738 349.5,333.5C 360.397,321.147 367.063,306.814 369.5,290.5C 369.369,291.239 369.536,291.906 370,292.5C 370.333,290.833 370.667,289.167 371,287.5C 371.333,288.167 371.667,288.833 372,289.5C 373.289,286.832 374.456,284.165 375.5,281.5C 374.5,281.5 373.5,281.5 372.5,281.5C 372.726,278.751 372.393,276.084 371.5,273.5C 372.582,269.968 374.082,269.968 376,273.5C 376.333,273.167 376.667,272.833 377,272.5C 376.87,277.041 377.036,281.541 377.5,286C 377.135,288.261 376.469,290.427 375.5,292.5C 377.139,294.292 378.472,296.292 379.5,298.5C 378.418,300.673 378.418,302.673 379.5,304.5 Z"/></g>
<g><path style="opacity:1" fill="#d2d8d9" d="M 134.5,292.5 C 141.095,325.095 160.761,344.761 193.5,351.5C 193.5,351.833 193.5,352.167 193.5,352.5C 193.844,353.683 193.178,354.516 191.5,355C 196.833,355.667 196.833,356.333 191.5,357C 196.197,357.28 200.863,357.78 205.5,358.5C 207.121,357.295 208.454,357.461 209.5,359C 207.603,360.11 205.77,360.276 204,359.5C 202.812,360.563 202.312,361.897 202.5,363.5C 235.168,363.333 267.835,363.5 300.5,364C 267.168,364.5 233.835,364.667 200.5,364.5C 167.153,362.312 142.986,346.312 128,316.5C 126.523,312.57 125.356,308.57 124.5,304.5C 128.769,303.216 130.603,300.216 130,295.5C 130.333,296.167 130.667,296.833 131,297.5C 131.359,294.456 132.026,294.122 133,296.5C 134.188,295.437 134.688,294.103 134.5,292.5 Z"/></g>
<g><path style="opacity:1" fill="#c9d0ce" d="M 349.5,333.5 C 350.412,334.738 350.579,336.072 350,337.5C 348.306,342.305 345.972,346.305 343,349.5C 339.187,353.993 334.353,356.826 328.5,358C 327.262,358.69 327.262,359.19 328.5,359.5C 320.319,363.038 311.652,364.871 302.5,365C 268.331,365.831 234.331,365.664 200.5,364.5C 233.835,364.667 267.168,364.5 300.5,364C 267.835,363.5 235.168,363.333 202.5,363.5C 202.312,361.897 202.812,360.563 204,359.5C 205.77,360.276 207.603,360.11 209.5,359C 208.454,357.461 207.121,357.295 205.5,358.5C 200.863,357.78 196.197,357.28 191.5,357C 196.833,356.333 196.833,355.667 191.5,355C 193.178,354.516 193.844,353.683 193.5,352.5C 231.835,352.667 270.168,352.5 308.5,352C 324.021,349.567 337.687,343.4 349.5,333.5 Z"/></g>
</svg>
